<?xml version="1.0" encoding="UTF-8" standalone="no"?>
<svg width="54px" height="54px" viewBox="0 0 54 54" version="1.1" xmlns="http://www.w3.org/2000/svg" xmlns:xlink="http://www.w3.org/1999/xlink">
    <!-- Generator: Sketch 42 (36781) - http://www.bohemiancoding.com/sketch -->
    <title>Combined Shape</title>
    <desc>Created with Sketch.</desc>
    <defs>
        <path d="M0,23 C0,10.2974501 10.2974501,0 23,0 C35.7025499,0 46,10.2974501 46,23 C46,35.7025499 35.7025499,46 23,46 C10.2974501,46 0,35.7025499 0,23 Z M24.630657,35.7568319 L24.630657,23.2436175 L28.0848514,23.2436175 L28.5426067,18.9314946 L24.630657,18.9314946 L24.6365256,16.7732356 C24.6365256,15.6485675 24.7433841,15.0459446 26.3587323,15.0459446 L28.518154,15.0459446 L28.518154,10.7333333 L25.0634705,10.7333333 C20.9138401,10.7333333 19.4532778,12.8251769 19.4532778,16.343 L19.4532778,18.9319829 L16.8666667,18.9319829 L16.8666667,23.2441059 L19.4532778,23.2441059 L19.4532778,35.7568319 L24.630657,35.7568319 Z" id="path-1"></path>
        <filter x="-50%" y="-50%" width="200%" height="200%" filterUnits="objectBoundingBox" id="filter-2">
            <feOffset dx="0" dy="2" in="SourceAlpha" result="shadowOffsetOuter1"></feOffset>
            <feGaussianBlur stdDeviation="2" in="shadowOffsetOuter1" result="shadowBlurOuter1"></feGaussianBlur>
            <feColorMatrix values="0 0 0 0 0   0 0 0 0 0   0 0 0 0 0  0 0 0 0.5 0" type="matrix" in="shadowBlurOuter1"></feColorMatrix>
        </filter>
    </defs>
    <g id="master-page" stroke="none" stroke-width="1" fill="none" fill-rule="evenodd">
        <g id="Mobile-Portrait" transform="translate(-28.000000, -613.000000)">
            <g id="social" transform="translate(-1.000000, 542.000000)">
                <g id="Facebook" transform="translate(33.000000, 73.000000)">
                    <g id="Combined-Shape">
                        <use fill="black" fill-opacity="1" filter="url(#filter-2)" xlink:href="#path-1"></use>
                        <use fill="#ECCB80" fill-rule="evenodd" xlink:href="#path-1"></use>
                    </g>
                </g>
            </g>
        </g>
    </g>
</svg>