<?xml version="1.0" encoding="UTF-8" standalone="no"?>
<svg width="54px" height="54px" viewBox="0 0 54 54" version="1.1" xmlns="http://www.w3.org/2000/svg" xmlns:xlink="http://www.w3.org/1999/xlink">
    <!-- Generator: Sketch 42 (36781) - http://www.bohemiancoding.com/sketch -->
    <title>Combined Shape</title>
    <desc>Created with Sketch.</desc>
    <defs>
        <path d="M0,23 C0,10.2974501 10.2974501,0 23,0 C35.7025499,0 46,10.2974501 46,23 C46,35.7025499 35.7025499,46 23,46 C10.2974501,46 0,35.7025499 0,23 Z M23.00115,10.7333333 C19.6696931,10.7333333 19.2515998,10.7479002 17.9431418,10.8074452 C16.6372393,10.8672458 15.7458522,11.0739924 14.9658885,11.37734 C14.1590912,11.6906544 13.4747063,12.1097699 12.792877,12.7918548 C12.1105366,13.4736841 11.6914211,14.158069 11.3770845,14.9646107 C11.0729702,15.74483 10.865968,16.6364726 10.8071897,17.941864 C10.7486668,19.2503221 10.7333333,19.6686709 10.7333333,23.0001278 C10.7333333,26.3315847 10.7481557,26.7484002 10.8074452,28.0568582 C10.8675014,29.3627607 11.074248,30.2541478 11.37734,31.0341115 C11.69091,31.8409088 12.1100255,32.5252937 12.7921103,33.207123 C13.4736841,33.8894634 14.158069,34.3096011 14.9643552,34.6229155 C15.74483,34.9262631 16.6364726,35.1330097 17.9421195,35.1928103 C19.2505776,35.2523554 19.6684153,35.2669222 22.9996167,35.2669222 C26.3313291,35.2669222 26.7481446,35.2523554 28.0566027,35.1928103 C29.3625052,35.1330097 30.2549145,34.9262631 31.0353893,34.6229155 C31.841931,34.3096011 32.5252937,33.8894634 33.2068674,33.207123 C33.8892079,32.5252937 34.3083234,31.8409088 34.62266,31.034367 C34.9242187,30.2541478 35.1312208,29.3625052 35.1925548,28.0571138 C35.2513332,26.7486557 35.2666667,26.3315847 35.2666667,23.0001278 C35.2666667,19.6686709 35.2513332,19.2505776 35.1925548,17.9421195 C35.1312208,16.636217 34.9242187,15.74483 34.62266,14.9648663 C34.3083234,14.158069 33.8892079,13.4736841 33.2068674,12.7918548 C32.524527,12.1095143 31.8421866,11.6903989 31.0346226,11.37734 C30.2526144,11.0739924 29.3607163,10.8672458 28.0548138,10.8074452 C26.7463557,10.7479002 26.3297958,10.7333333 22.9973166,10.7333333 L23.00115,10.7333333 Z" id="path-1"></path>
        <filter x="-50%" y="-50%" width="200%" height="200%" filterUnits="objectBoundingBox" id="filter-2">
            <feOffset dx="0" dy="2" in="SourceAlpha" result="shadowOffsetOuter1"></feOffset>
            <feGaussianBlur stdDeviation="2" in="shadowOffsetOuter1" result="shadowBlurOuter1"></feGaussianBlur>
            <feColorMatrix values="0 0 0 0 0   0 0 0 0 0   0 0 0 0 0  0 0 0 0.5 0" type="matrix" in="shadowBlurOuter1"></feColorMatrix>
        </filter>
        <path d="M21.9007163,12.9439119 C22.2273197,12.9434008 22.5917457,12.9439119 23.00115,12.9439119 C26.2763841,12.9439119 26.6645771,12.9556676 27.9579572,13.014446 C29.1539697,13.0691354 29.8030875,13.268982 30.235492,13.4368837 C30.8079424,13.6592194 31.2160689,13.9249999 31.6451512,14.3543377 C32.074489,14.7836755 32.3402695,15.1925687 32.5631163,15.7650191 C32.731018,16.1969125 32.9311201,16.8460303 32.985554,18.0420428 C33.0443324,19.3351674 33.0571103,19.7236159 33.0571103,22.9973166 C33.0571103,26.2710174 33.0443324,26.6594659 32.985554,27.9525905 C32.9308646,29.1486029 32.731018,29.7977208 32.5631163,30.2296142 C32.3407806,30.8020646 32.074489,31.20968 31.6451512,31.6387622 C31.2158134,32.0681 30.808198,32.3338806 30.235492,32.5562162 C29.8035986,32.7248846 29.1539697,32.92422 27.9579572,32.9789095 C26.6648326,33.0376879 26.2763841,33.0504658 23.00115,33.0504658 C19.7256603,33.0504658 19.3374674,33.0376879 18.0443428,32.9789095 C16.8483304,32.9237089 16.1992125,32.7238624 15.7665524,32.5559607 C15.194102,32.333625 14.7852089,32.0678445 14.3558711,31.6385067 C13.9265333,31.2091688 13.6607527,30.8012979 13.437906,30.228592 C13.2700042,29.7966986 13.0699021,29.1475807 13.0154682,27.9515682 C12.9566898,26.6584437 12.9449341,26.2699952 12.9449341,22.9942499 C12.9449341,19.7185047 12.9566898,19.3321007 13.0154682,18.0389761 C13.0701577,16.8429636 13.2700042,16.1938458 13.437906,15.7614413 C13.6602416,15.1889909 13.9265333,14.7800977 14.3558711,14.3507599 C14.7852089,13.9214221 15.194102,13.6556416 15.7665524,13.4327948 C16.1989569,13.2641264 16.8483304,13.064791 18.0443428,13.0098459 C19.1759546,12.9587343 19.6144925,12.9434008 21.9007163,12.9408452 L21.9007163,12.9439119 Z M29.5490627,14.9807109 C28.7363875,14.9807109 28.0770473,15.6392844 28.0770473,16.4522151 C28.0770473,17.2648903 28.7363875,17.9242305 29.5490627,17.9242305 C30.3617378,17.9242305 31.021078,17.2648903 31.021078,16.4522151 C31.021078,15.63954 30.3617378,14.9801998 29.5490627,14.9801998 L29.5490627,14.9807109 Z M23.00115,16.7006177 C19.522236,16.7006177 16.7016399,19.5212138 16.7016399,23.0001278 C16.7016399,26.4790418 19.522236,29.2983601 23.00115,29.2983601 C26.480064,29.2983601 29.2996378,26.4790418 29.2996378,23.0001278 C29.2996378,19.5212138 26.4798085,16.7006177 23.0008945,16.7006177 L23.00115,16.7006177 Z" id="path-3"></path>
        <filter x="-50%" y="-50%" width="200%" height="200%" filterUnits="objectBoundingBox" id="filter-4">
            <feOffset dx="0" dy="2" in="SourceAlpha" result="shadowOffsetOuter1"></feOffset>
            <feGaussianBlur stdDeviation="2" in="shadowOffsetOuter1" result="shadowBlurOuter1"></feGaussianBlur>
            <feColorMatrix values="0 0 0 0 0   0 0 0 0 0   0 0 0 0 0  0 0 0 0.5 0" type="matrix" in="shadowBlurOuter1"></feColorMatrix>
        </filter>
        <path d="M23.00115,18.9111963 C25.2592624,18.9111963 27.0900815,20.7417598 27.0900815,23.0001278 C27.0900815,25.2582402 25.2592624,27.0890593 23.00115,27.0890593 C20.742782,27.0890593 18.9122185,25.2582402 18.9122185,23.0001278 C18.9122185,20.7417598 20.742782,18.9111963 23.00115,18.9111963 L23.00115,18.9111963 Z" id="path-5"></path>
        <filter x="-50%" y="-50%" width="200%" height="200%" filterUnits="objectBoundingBox" id="filter-6">
            <feOffset dx="0" dy="2" in="SourceAlpha" result="shadowOffsetOuter1"></feOffset>
            <feGaussianBlur stdDeviation="2" in="shadowOffsetOuter1" result="shadowBlurOuter1"></feGaussianBlur>
            <feColorMatrix values="0 0 0 0 0   0 0 0 0 0   0 0 0 0 0  0 0 0 0.5 0" type="matrix" in="shadowBlurOuter1"></feColorMatrix>
        </filter>
    </defs>
    <g id="master-page" stroke="none" stroke-width="1" fill="none" fill-rule="evenodd">
        <g id="Mobile-Portrait" transform="translate(-169.000000, -613.000000)">
            <g id="social" transform="translate(-1.000000, 542.000000)">
                <g id="Instagram" transform="translate(174.000000, 73.000000)">
                    <g id="Combined-Shape">
                        <g>
                            <use fill="black" fill-opacity="1" filter="url(#filter-2)" xlink:href="#path-1"></use>
                            <use fill="#ECCB80" fill-rule="evenodd" xlink:href="#path-1"></use>
                        </g>
                        <g>
                            <use fill="black" fill-opacity="1" filter="url(#filter-4)" xlink:href="#path-3"></use>
                            <use fill="#ECCB80" fill-rule="evenodd" xlink:href="#path-3"></use>
                        </g>
                        <g id="Shape">
                            <use fill="black" fill-opacity="1" filter="url(#filter-6)" xlink:href="#path-5"></use>
                            <use fill="#ECCB80" fill-rule="evenodd" xlink:href="#path-5"></use>
                        </g>
                    </g>
                </g>
            </g>
        </g>
    </g>
</svg>