<?xml version="1.0" encoding="UTF-8" standalone="no"?>
<svg width="54px" height="53px" viewBox="0 0 54 53" version="1.1" xmlns="http://www.w3.org/2000/svg" xmlns:xlink="http://www.w3.org/1999/xlink">
    <!-- Generator: Sketch 42 (36781) - http://www.bohemiancoding.com/sketch -->
    <title>Combined Shape</title>
    <desc>Created with Sketch.</desc>
    <defs>
        <path d="M0,22.5 C0,10.0735925 10.1432762,0 22.6556429,0 C35.1680097,0 45.3112859,10.0735925 45.3112859,22.5 C45.3112859,34.9264075 35.1680097,45 22.6556429,45 C10.1432762,45 0,34.9264075 0,22.5 Z M22.8549718,11.25 L22.8539087,11.25 C22.8330838,11.25 22.8135097,11.25 22.7948737,11.2502481 C22.6462856,11.2517365 22.4020158,11.2540931 22.3800653,11.2543412 C21.8443728,11.2543412 20.77255,11.329381 19.6212427,11.8333267 C18.9629775,12.121269 18.3708766,12.5106083 17.8614496,12.9905535 C17.2540897,13.5624071 16.7592964,14.2674721 16.3910782,15.0864613 C15.851821,16.2856112 15.9798344,18.3054248 16.0826453,19.9285812 L16.0830206,19.9311238 C16.0940271,20.1049559 16.1055965,20.2864781 16.1161652,20.463349 C16.0370558,20.4993805 15.9087923,20.5373966 15.7197428,20.5373966 C15.4155625,20.5373966 15.0538481,20.440961 14.6449182,20.2509426 C14.5245969,20.1953759 14.3872655,20.1672825 14.2357382,20.1672825 C13.9922814,20.1672825 13.7356293,20.2383533 13.5129973,20.3681537 C13.2328938,20.531257 13.0519115,20.7617721 13.0027574,21.0173419 C12.9703632,21.1863987 12.9719266,21.5205433 13.346211,21.8594011 C13.552083,22.0459466 13.8545122,22.2179802 14.2448686,22.3709748 C14.3473043,22.4109754 14.4688764,22.4491775 14.5976402,22.4896743 C15.0444675,22.6305136 15.7207434,22.843292 15.8970979,23.2548952 C15.9864633,23.4635805 15.948003,23.7381893 15.7830928,24.0701013 C15.7787777,24.0791557 15.7744627,24.0880241 15.7705229,24.0973265 C15.7293109,24.1927698 15.344833,25.0564108 14.5561781,25.9672464 C14.1080375,26.4852077 13.6144324,26.9180825 13.0898715,27.2542116 C12.4496171,27.6645744 11.7568315,27.9328576 11.0309637,28.051433 C10.7459198,28.0978213 10.5423616,28.3496701 10.5582461,28.635876 C10.5631239,28.7183578 10.5826355,28.8005916 10.6164681,28.8801587 C10.6167182,28.8806549 10.6170309,28.881151 10.617281,28.8815851 C10.7325369,29.148938 10.9997577,29.3760422 11.4342027,29.5763553 C11.9650799,29.8208862 12.7590505,30.0265947 13.7938513,30.1875274 C13.8461323,30.2861335 13.9004144,30.5339512 13.9379992,30.7036282 C13.977335,30.8839721 14.0183594,31.0694012 14.0768315,31.2663655 C14.1399314,31.479764 14.3035909,31.7347757 14.7240276,31.7347757 C14.883372,31.7347757 15.0666056,31.6991782 15.2787939,31.6583714 C15.5895406,31.5979054 16.0144799,31.5154235 16.5448568,31.5154235 C16.8389061,31.5154235 17.1436492,31.5410983 17.4503935,31.5916417 C18.0416815,31.6892556 18.5514211,32.0463463 19.1412082,32.4598719 C20.0044698,33.0650284 20.9816115,33.75 22.4745588,33.75 C22.5152704,33.75 22.5561072,33.7486977 22.5964436,33.7459069 C22.6457853,33.7482015 22.7069466,33.75 22.7714848,33.75 C24.2648699,33.75 25.2417614,33.0647803 26.104085,32.46012 L26.1054608,32.4588797 C26.695373,32.0458501 27.2045498,31.6892556 27.7956501,31.5916417 C28.1022693,31.5411603 28.4069499,31.5154235 28.7011243,31.5154235 C29.2077996,31.5154235 29.6089749,31.5794865 29.9671872,31.6487588 C30.2009507,31.6944029 30.3826209,31.7163568 30.522016,31.7163568 L30.5356491,31.7166048 L30.5497825,31.7166048 C30.8572772,31.7166048 31.0832237,31.5492225 31.1694623,31.2563188 C31.2267462,31.0635097 31.2676455,30.8824216 31.3079819,30.699039 C31.3431277,30.5400289 31.399286,30.2851413 31.451567,30.1854808 C32.4870557,30.0242381 33.2807136,29.8189637 33.8116533,29.5744948 C34.2450977,29.375112 34.5120059,29.1482558 34.6279496,28.8820192 C34.6627202,28.8022041 34.6830448,28.7194741 34.68761,28.6352558 C34.7039321,28.349546 34.5000613,28.0972011 34.2148297,28.0508128 C30.9888552,27.523549 29.5355564,24.2364294 29.4754582,24.0967684 C29.4715809,24.08759 29.4672033,24.0784735 29.4626381,24.0696052 C29.2977279,23.7375691 29.2596428,23.4632704 29.3490708,23.254213 C29.5250501,22.8429819 30.2008882,22.6302035 30.6480282,22.4894262 C30.7774799,22.4489915 30.8994898,22.4105413 31.0011125,22.3707267 C31.4413109,22.198321 31.7559349,22.0112794 31.9634954,21.7988731 C32.2113923,21.54566 32.2596709,21.3030516 32.2566692,21.1442895 C32.2491022,20.7601597 31.9529892,20.4188212 31.48196,20.2516868 C31.3228657,20.1864455 31.1414457,20.1520264 30.9567112,20.1520264 C30.8309491,20.1520264 30.6447137,20.169143 30.4684218,20.2507566 C30.0910106,20.425891 29.7529352,20.5216444 29.4627007,20.535288 C29.3083592,20.527536 29.2001075,20.4943572 29.1300035,20.4626668 C29.1388212,20.3128351 29.148577,20.1589102 29.1586455,19.9984117 L29.1628354,19.9296975 C29.2662092,18.3054868 29.3946603,16.2841228 28.8551531,15.0841046 C28.4853714,14.2622007 27.9888271,13.5553373 27.3790282,12.9822433 C26.8676001,12.501988 26.2734979,12.1127108 25.6128564,11.8249545 C24.463175,11.3247298 23.3914147,11.25 22.8549718,11.25 Z" id="path-1"></path>
        <filter x="-50%" y="-50%" width="200%" height="200%" filterUnits="objectBoundingBox" id="filter-2">
            <feOffset dx="0" dy="2" in="SourceAlpha" result="shadowOffsetOuter1"></feOffset>
            <feGaussianBlur stdDeviation="2" in="shadowOffsetOuter1" result="shadowBlurOuter1"></feGaussianBlur>
            <feColorMatrix values="0 0 0 0 0   0 0 0 0 0   0 0 0 0 0  0 0 0 0.5 0" type="matrix" in="shadowBlurOuter1"></feColorMatrix>
        </filter>
    </defs>
    <g id="master-page" stroke="none" stroke-width="1" fill="none" fill-rule="evenodd">
        <g id="Mobile-Portrait" transform="translate(-239.000000, -614.000000)">
            <g id="social" transform="translate(-1.000000, 542.000000)">
                <g id="Snapchat" transform="translate(244.000000, 74.000000)">
                    <g id="Combined-Shape">
                        <use fill="black" fill-opacity="1" filter="url(#filter-2)" xlink:href="#path-1"></use>
                        <use fill="#ECCB80" fill-rule="evenodd" xlink:href="#path-1"></use>
                    </g>
                </g>
            </g>
        </g>
    </g>
</svg>