<?xml version="1.0" encoding="UTF-8" standalone="no"?>
<svg width="54px" height="54px" viewBox="0 0 54 54" version="1.1" xmlns="http://www.w3.org/2000/svg" xmlns:xlink="http://www.w3.org/1999/xlink">
    <!-- Generator: Sketch 42 (36781) - http://www.bohemiancoding.com/sketch -->
    <title>Combined Shape</title>
    <desc>Created with Sketch.</desc>
    <defs>
        <path d="M0,23 C0,10.2974501 10.2974501,0 23,0 C35.7025499,0 46,10.2974501 46,23 C46,35.7025499 35.7025499,46 23,46 C10.2974501,46 0,35.7025499 0,23 Z M22.3111525,18.6946881 L22.3594166,19.49054 L21.5550154,19.3930887 C18.6269949,19.0195256 16.068999,17.7526593 13.8971157,15.6249737 L12.835306,14.5692518 L12.5618096,15.3488618 C11.9826407,17.0867424 12.3526653,18.9220744 13.5592671,20.1564569 C14.2027881,20.8386156 14.0579959,20.9360669 12.9479222,20.53002 C12.5618096,20.400085 12.2239611,20.3026338 12.1917851,20.3513594 C12.0791689,20.4650525 12.4652815,21.9430632 12.7709539,22.5277707 C13.1892426,23.3398644 14.0419079,24.1357163 14.9750133,24.6067307 L15.7633265,24.9802938 L14.8302211,24.9965357 C13.9292917,24.9965357 13.8971157,25.0127776 13.9936438,25.353857 C14.3154043,26.4095789 15.5863582,27.5302683 17.0021044,28.0175245 L17.9995619,28.3586039 L17.1308086,28.8783439 C15.8437666,29.6254702 14.3314923,30.0477589 12.819218,30.0802427 C12.0952569,30.0964845 11.5,30.1614521 11.5,30.2101777 C11.5,30.3725964 13.462739,31.2821414 14.6049887,31.6394627 C18.031738,32.6951846 22.1020082,32.2404121 25.1587329,30.4375639 C27.3306162,29.1544558 29.5024995,26.6044814 30.516045,24.1357163 C31.0630379,22.8201244 31.6100307,20.4163269 31.6100307,19.2631537 C31.6100307,18.5160275 31.6582948,18.4185762 32.5592242,17.5252731 C33.090129,17.0055331 33.5888577,16.4370674 33.6853859,16.2746487 C33.8462661,15.9660531 33.8301781,15.9660531 33.0096889,16.2421649 C31.6422068,16.7294212 31.4491505,16.6644537 32.1248475,15.9335693 C32.6235763,15.4138293 33.2188332,14.4718005 33.2188332,14.1956886 C33.2188332,14.146963 32.9775128,14.2281724 32.7040164,14.3743493 C32.4144319,14.536768 31.770911,14.7803962 31.2882702,14.926573 L30.4195169,15.2026849 L29.6312037,14.666703 C29.196827,14.3743493 28.5854821,14.0495118 28.2637216,13.9520605 C27.4432324,13.7246743 26.1883664,13.757158 25.4483173,14.017028 C23.4373142,14.7479124 22.1663603,16.6319699 22.3111525,18.6946881 Z" id="path-1"></path>
        <filter x="-50%" y="-50%" width="200%" height="200%" filterUnits="objectBoundingBox" id="filter-2">
            <feOffset dx="0" dy="2" in="SourceAlpha" result="shadowOffsetOuter1"></feOffset>
            <feGaussianBlur stdDeviation="2" in="shadowOffsetOuter1" result="shadowBlurOuter1"></feGaussianBlur>
            <feColorMatrix values="0 0 0 0 0   0 0 0 0 0   0 0 0 0 0  0 0 0 0.5 0" type="matrix" in="shadowBlurOuter1"></feColorMatrix>
        </filter>
    </defs>
    <g id="master-page" stroke="none" stroke-width="1" fill="none" fill-rule="evenodd">
        <g id="Mobile-Portrait" transform="translate(-98.000000, -613.000000)">
            <g id="social" transform="translate(-1.000000, 542.000000)">
                <g id="Twitter" transform="translate(103.000000, 73.000000)">
                    <g id="Combined-Shape">
                        <use fill="black" fill-opacity="1" filter="url(#filter-2)" xlink:href="#path-1"></use>
                        <use fill="#ECCB80" fill-rule="evenodd" xlink:href="#path-1"></use>
                    </g>
                </g>
            </g>
        </g>
    </g>
</svg>