<svg width="352" height="50"><defs id="SvgjsDefs1488"></defs><g id="main_text" rel="mainfill" name="main_text" feature="main_text" xmlns:name="mainText_mainfill" groupname="main_text" fill="#397386" transform="translate(52.1568053054605, -3.8561129215578323) scale(2.0296149099595495)"><path d="M12.549 18.085975 l0.70313 -1.3281 l0 7.2266 l-0.70313 0 l0 -5.8984 z M13.955 15.390575 l0.70313 -1.3281 l0 9.9219 l-0.70313 0 l0 -8.5938 z M15.361 12.734375 l0.70313 -1.3379 l0 12.588 l-0.70313 0 l0 -11.25 z M10.645 17.753875 l-0.40039 -0.73242 l4.8438 -9.209 l0.79102 0 z M9.834 16.220675 l-0.41016 -0.74219 l4.0625 -7.666 l0.80078 0 z M5.127 16.835975 l0.70313 1.3281 l0 5.8203 l-0.70313 0 l0 -7.1484 z M3.7207 14.160175 l0.70313 1.3281 l0 8.4961 l-0.70313 0 l0 -9.8242 z M2.3145 11.484375 l0.70313 1.3379 l0 11.162 l-0.70313 0 l0 -12.5 z M7.998 19.765575 l-0.79102 0 l-5.5957 -10.615 l0 14.834 l-0.70313 0 l0 -16.172 l0.79102 0 z M9.5898 19.765575 l-0.80078 0 l-6.2891 -11.953 l0.80078 0 z M16.768 9.150375 l-5.5957 10.615 l-0.80078 0 l-6.2793 -11.953 l0.79102 0 l5.8984 11.211 l5.8887 -11.211 l0.80078 0 l0 16.172 l-0.70313 0 l0 -14.834 z M23.87696875 16.953075 q0 1.162109375 0.8251953125 1.987304688 t1.9873 0.8252 t1.9873 -0.8252 t0.8252 -1.9873 t-0.8252 -1.9873 t-1.9873 -0.8252 t-1.9873 0.8252 t-0.8252 1.9873 z M23.17386875 16.953075 q0 -1.455078125 1.030273438 -2.485351563 t2.4854 -1.0303 t2.4854 1.0303 t1.0303 2.4854 t-1.0303 2.4854 t-2.4854 1.0303 t-2.4854 -1.0303 t-1.0303 -2.4854 z M22.47066875 16.953075 q0 1.73828125 1.235351563 2.978515625 t2.9834 1.2402 t2.9834 -1.2402 t1.2354 -2.9785 t-1.2354 -2.9785 t-2.9834 -1.2402 t-2.9834 1.2402 t-1.2354 2.9785 z M21.76756875 16.953075 q0 -1.337890625 0.6591796875 -2.470703125 t1.792 -1.792 t2.4707 -0.65918 t2.4707 0.65918 t1.792 1.792 t0.65918 2.4707 t-0.65918 2.4707 t-1.792 1.792 t-2.4707 0.65918 t-2.4707 -0.65918 t-1.792 -1.792 t-0.65918 -2.4707 z M21.06446875 16.953075 q0 1.142578125 0.4443359375 2.182617188 t1.2012 1.7969 t1.7969 1.2012 t2.1826 0.44434 t2.1826 -0.44434 t1.7969 -1.2012 t1.2012 -1.7969 t0.44434 -2.1826 t-0.44434 -2.1826 t-1.2012 -1.7969 t-1.7969 -1.2012 t-2.1826 -0.44434 t-2.1826 0.44434 t-1.7969 1.2012 t-1.2012 1.7969 t-0.44434 2.1826 z M20.36136875 16.953075 q0 -1.2890625 0.5029296875 -2.4609375 t1.3477 -2.0166 t2.0166 -1.3477 t2.4609 -0.50293 t2.4609 0.50293 t2.0166 1.3477 t1.3477 2.0166 t0.50293 2.4609 t-0.50293 2.4609 t-1.3477 2.0166 t-2.0166 1.3477 t-2.4609 0.50293 t-2.4609 -0.50293 t-2.0166 -1.3477 t-1.3477 -2.0166 t-0.50293 -2.4609 z M19.65816875 16.953075 q0 1.42578125 0.556640625 2.729492188 t1.499 2.2461 t2.2461 1.499 t2.7295 0.55664 t2.7295 -0.55664 t2.2461 -1.499 t1.499 -2.2461 t0.55664 -2.7295 t-0.55664 -2.7295 t-1.499 -2.2461 t-2.2461 -1.499 t-2.7295 -0.55664 t-2.7295 0.55664 t-2.2461 1.499 t-1.499 2.2461 t-0.55664 2.7295 z M18.95507875 16.953075 q0 -1.572265625 0.615234375 -3.002929688 t1.6504 -2.4658 t2.4658 -1.6504 t3.0029 -0.61523 t3.0029 0.61523 t2.4658 1.6504 t1.6504 2.4658 t0.61523 3.0029 t-0.61523 3.0029 t-1.6504 2.4658 t-2.4658 1.6504 t-3.0029 0.61523 t-3.0029 -0.61523 t-2.4658 -1.6504 t-1.6504 -2.4658 t-0.61523 -3.0029 z M35.439450625 9.921375 l0.76172 0 l5.1855 13.115 l5.1855 -13.115 l0.75195 0 l-5.5566 14.063 l-0.76172 0 z M36.953090625 9.921375 l0.75195 0 l4.1699 10.547 l-0.40039 0.89844 z M38.466790625 9.921375 l0.76172 0 l3.3984 8.623 l-0.37109 0.9668 z M39.980490625 9.921375 l0.75195 0 l2.6367 6.6699 l-0.37109 0.98633 z M51.103890625 9.921375 l0.76172 0 l-5.5664 14.063 l-0.75195 0 z M49.599890625 9.921375 l0.75195 0 l-5.5664 14.063 l-0.75195 0 z M48.075890625 9.921375 l0.76172 0 l-5.5664 14.063 l-0.75195 0 z M57.324265625 9.921375 l0.70313 0 l0 14.063 l-0.70313 0 l0 -14.063 z M55.917965625 9.921375 l0.70313 0 l0 14.063 l-0.70313 0 l0 -14.063 z M54.511765625 9.921375 l0.70313 0 l0 14.063 l-0.70313 0 l0 -14.063 z M53.105465625 9.921375 l0.70313 0 l0 14.063 l-0.70313 0 l0 -14.063 z M63.378878125 23.984375 l-0.70313 0 l0 -14.063 l0.70313 0 l0 14.063 z M61.972678125 23.984375 l-0.70313 0 l0 -14.063 l0.70313 0 l0 14.063 z M60.566378125 23.984375 l-0.70313 0 l0 -14.063 l0.70313 0 l0 14.063 z M64.785178125 20.468775 l6.7285 0 l0 0.70313 l-6.7285 0 l0 0.70313 l6.7285 0 l0 0.70313 l-6.7285 0 l0 0.70313 l6.7285 0 l0 0.70313 l-7.4316 0 l0 -14.063 l7.4316 0 l0 0.70313 l-6.7285 0 l0 0.70313 l6.7285 0 l0 0.70313 l-6.7285 0 l0 0.70313 l6.7285 0 l0 0.70313 l-6.7285 0 l0 1.748 l6.3379 0 l0 0.70313 l-6.3379 0 l0 0.70313 l6.3379 0 l0 0.70313 l-6.3379 0 l0 0.70313 l6.3379 0 l0 0.70313 l-6.3379 0 l0 1.7676 z  M87.011890625 18.085975 l0.70313 -1.3281 l0 7.2266 l-0.70313 0 l0 -5.8984 z M88.417890625 15.390575 l0.70313 -1.3281 l0 9.9219 l-0.70313 0 l0 -8.5938 z M89.823890625 12.734375 l0.70313 -1.3379 l0 12.588 l-0.70313 0 l0 -11.25 z M85.107890625 17.753875 l-0.40039 -0.73242 l4.8438 -9.209 l0.79102 0 z M84.296890625 16.220675 l-0.41016 -0.74219 l4.0625 -7.666 l0.80078 0 z M79.589890625 16.835975 l0.70313 1.3281 l0 5.8203 l-0.70313 0 l0 -7.1484 z M78.183590625 14.160175 l0.70313 1.3281 l0 8.4961 l-0.70313 0 l0 -9.8242 z M76.777390625 11.484375 l0.70313 1.3379 l0 11.162 l-0.70313 0 l0 -12.5 z M82.460890625 19.765575 l-0.79102 0 l-5.5957 -10.615 l0 14.834 l-0.70313 0 l0 -16.172 l0.79102 0 z M84.052690625 19.765575 l-0.80078 0 l-6.2891 -11.953 l0.80078 0 z M91.230890625 9.150375 l-5.5957 10.615 l-0.80078 0 l-6.2793 -11.953 l0.79102 0 l5.8984 11.211 l5.8887 -11.211 l0.80078 0 l0 16.172 l-0.70313 0 l0 -14.834 z M103.769859375 17.050775 q0 -1.25 -0.771484375 -1.93359375 t-2.041 -0.68359 q-1.07421875 0 -1.845703125 0.7421875 t-0.77148 1.7773 q0 0.5859375 0.15625 1.049804688 t0.4248 0.77148 t0.63965 0.50781 t0.77637 0.28809 t0.86426 0.087891 q1.11328125 0 2.03125 -0.546875 l0 0.70313 q-0.947265625 0.498046875 -2.041015625 0.498046875 q-0.703125 0 -1.323242188 -0.1904296875 t-1.1279 -0.57617 t-0.80566 -1.0547 t-0.29785 -1.5381 q0 -1.34765625 0.947265625 -2.28515625 t2.373 -0.9375 q1.572265625 0 2.543945313 0.8837890625 t0.97168 2.4365 l0 6.9336 l-0.70313 0 l0 -6.9336 z M105.878859375 17.050775 l0 6.9336 l-0.70313 0 l0 -6.9336 q0 -1.845703125 -1.181640625 -2.934570313 t-3.0371 -1.0889 q-1.71875 0 -2.87109375 1.142578125 t-1.1523 2.7832 q0 0.99609375 0.3466796875 1.787109375 t0.94238 1.2695 t1.333 0.72754 t1.5576 0.24902 q1.11328125 0 2.119140625 -0.517578125 l0 0.74219 q-1.0546875 0.439453125 -2.12890625 0.439453125 q-0.966796875 0 -1.8359375 -0.2978515625 t-1.5527 -0.86914 t-1.084 -1.4844 t-0.40039 -2.0459 q0 -1.923828125 1.362304688 -3.276367188 t3.3643 -1.3525 q1.40625 0 2.51953125 0.5712890625 t1.7578 1.6553 t0.64453 2.5 z M107.284859375 17.050775 l0 6.9336 l-0.70313 0 l0 -6.9336 q0 -1.611328125 -0.7373046875 -2.856445313 t-2.0166 -1.9092 t-2.8711 -0.66406 q-1.513671875 0 -2.763671875 0.7177734375 t-1.958 1.9385 t-0.70801 2.6758 q0 1.25 0.458984375 2.280273438 t1.2354 1.6943 t1.7676 1.0303 t2.0752 0.36621 q1.103515625 0 2.16796875 -0.458984375 l0 0.71289 q-1.11328125 0.419921875 -2.1875 0.419921875 q-1.689453125 0 -3.10546875 -0.76171875 t-2.2656 -2.1582 t-0.84961 -3.125 q0 -1.23046875 0.4736328125 -2.34375 t1.2842 -1.9238 t1.9531 -1.2891 t2.4219 -0.47852 q1.787109375 0 3.227539063 0.76171875 t2.2705 2.168 t0.83008 3.2031 z M108.691859375 17.050775 l0 6.9336 l-0.70313 0 l0 -6.9336 q0 -1.9921875 -0.927734375 -3.559570313 t-2.5293 -2.4219 t-3.5742 -0.85449 q-1.89453125 0 -3.466796875 0.908203125 t-2.4707 2.4561 t-0.89844 3.374 q0 1.201171875 0.3857421875 2.280273438 t1.0547 1.8848 t1.543 1.3916 t1.8848 0.88867 t2.0557 0.30273 q1.15234375 0 2.1875 -0.439453125 l0 0.72266 q-1.083984375 0.380859375 -2.2265625 0.380859375 q-1.181640625 0 -2.299804688 -0.33203125 t-2.0703 -0.98145 t-1.6748 -1.5332 t-1.1328 -2.0654 t-0.41016 -2.5 q0 -1.513671875 0.5712890625 -2.885742188 t1.5625 -2.373 t2.4023 -1.5918 t3.0029 -0.59082 q1.62109375 0 3.046875 0.546875 t2.4609 1.5186 t1.6309 2.3877 t0.5957 3.0859 z M121.523484375 18.310575 l-0.70313 -1.2793 l0 -7.1094 l0.70313 0 l0 8.3887 z M122.929484375 20.742175 l-0.70313 -1.1914 l0 -9.6289 l0.70313 0 l0 10.82 z M113.242184375 15.595675 l0.70313 1.2793 l0 7.1094 l-0.70313 0 l0 -8.3887 z M111.835984375 13.066375 l0.70313 1.2891 l0 9.6289 l-0.70313 0 l0 -10.918 z M112.080084375 9.921375 l0.82031 0 l8.1445 14.063 l-0.82031 0 z M113.740284375 9.921375 l0.83008 0 l8.1348 14.063 l-0.83984 0 z M115.390584375 9.921375 l0.82031 0 l7.4219 12.842 l0 -12.842 l0.70313 0 l0 14.063 l-0.83008 0 z M111.132784375 11.132375 l0 12.852 l-0.70313 0 l0 -14.063 l0.83984 0 l8.1152 14.063 l-0.81055 0 z M130.390671875 9.921375 l0.70313 0 l0 14.063 l-0.70313 0 l0 -14.063 z M128.984371875 9.921375 l0.70313 0 l0 14.063 l-0.70313 0 l0 -14.063 z M127.578171875 9.921375 l0.70313 0 l0 14.063 l-0.70313 0 l0 -14.063 z M126.171871875 9.921375 l0.70313 0 l0 14.063 l-0.70313 0 l0 -14.063 z M142.910484375 17.050775 q0 -1.25 -0.771484375 -1.93359375 t-2.041 -0.68359 q-1.07421875 0 -1.845703125 0.7421875 t-0.77148 1.7773 q0 0.5859375 0.15625 1.049804688 t0.4248 0.77148 t0.63965 0.50781 t0.77637 0.28809 t0.86426 0.087891 q1.11328125 0 2.03125 -0.546875 l0 0.70313 q-0.947265625 0.498046875 -2.041015625 0.498046875 q-0.703125 0 -1.323242188 -0.1904296875 t-1.1279 -0.57617 t-0.80566 -1.0547 t-0.29785 -1.5381 q0 -1.34765625 0.947265625 -2.28515625 t2.373 -0.9375 q1.572265625 0 2.543945313 0.8837890625 t0.97168 2.4365 l0 6.9336 l-0.70313 0 l0 -6.9336 z M145.019484375 17.050775 l0 6.9336 l-0.70313 0 l0 -6.9336 q0 -1.845703125 -1.181640625 -2.934570313 t-3.0371 -1.0889 q-1.71875 0 -2.87109375 1.142578125 t-1.1523 2.7832 q0 0.99609375 0.3466796875 1.787109375 t0.94238 1.2695 t1.333 0.72754 t1.5576 0.24902 q1.11328125 0 2.119140625 -0.517578125 l0 0.74219 q-1.0546875 0.439453125 -2.12890625 0.439453125 q-0.966796875 0 -1.8359375 -0.2978515625 t-1.5527 -0.86914 t-1.084 -1.4844 t-0.40039 -2.0459 q0 -1.923828125 1.362304688 -3.276367188 t3.3643 -1.3525 q1.40625 0 2.51953125 0.5712890625 t1.7578 1.6553 t0.64453 2.5 z M146.425484375 17.050775 l0 6.9336 l-0.70313 0 l0 -6.9336 q0 -1.611328125 -0.7373046875 -2.856445313 t-2.0166 -1.9092 t-2.8711 -0.66406 q-1.513671875 0 -2.763671875 0.7177734375 t-1.958 1.9385 t-0.70801 2.6758 q0 1.25 0.458984375 2.280273438 t1.2354 1.6943 t1.7676 1.0303 t2.0752 0.36621 q1.103515625 0 2.16796875 -0.458984375 l0 0.71289 q-1.11328125 0.419921875 -2.1875 0.419921875 q-1.689453125 0 -3.10546875 -0.76171875 t-2.2656 -2.1582 t-0.84961 -3.125 q0 -1.23046875 0.4736328125 -2.34375 t1.2842 -1.9238 t1.9531 -1.2891 t2.4219 -0.47852 q1.787109375 0 3.227539063 0.76171875 t2.2705 2.168 t0.83008 3.2031 z M147.832484375 17.050775 l0 6.9336 l-0.70313 0 l0 -6.9336 q0 -1.9921875 -0.927734375 -3.559570313 t-2.5293 -2.4219 t-3.5742 -0.85449 q-1.89453125 0 -3.466796875 0.908203125 t-2.4707 2.4561 t-0.89844 3.374 q0 1.201171875 0.3857421875 2.280273438 t1.0547 1.8848 t1.543 1.3916 t1.8848 0.88867 t2.0557 0.30273 q1.15234375 0 2.1875 -0.439453125 l0 0.72266 q-1.083984375 0.380859375 -2.2265625 0.380859375 q-1.181640625 0 -2.299804688 -0.33203125 t-2.0703 -0.98145 t-1.6748 -1.5332 t-1.1328 -2.0654 t-0.41016 -2.5 q0 -1.513671875 0.5712890625 -2.885742188 t1.5625 -2.373 t2.4023 -1.5918 t3.0029 -0.59082 q1.62109375 0 3.046875 0.546875 t2.4609 1.5186 t1.6309 2.3877 t0.5957 3.0859 z"></path></g><g id="SvgjsG1490" rel="mainfill" name="symbol" feature="symbol" xmlns:name="symbol_mainfill" fill="#ae0c0c" transform="translate(1.7135001976057787, 4.292732413939847) scale(0.503362892229569)"><path d="M76.509,92.632c-2.197-0.407-4.389-0.85-6.592-1.215C59.29,89.66,48.662,87.92,38.032,86.179  c-8.29-1.358-16.581-2.707-24.871-4.062c-0.198-0.032-0.389-0.098-0.672-0.17c2.406-14.675,4.804-29.304,7.192-43.876  c0.246-0.051,0.328-0.094,0.401-0.08c1.839,0.326,4.056,0.145,5.406,1.138c1.302,0.96,1.718,3.132,2.502,4.781  c0.875,1.839,1.746,3.682,2.583,5.54c0.331,0.736,0.732,1.158,1.632,1.25c1.763,0.179,3.508,0.549,5.521,0.882  c-1.857-3.903-3.615-7.599-5.495-11.552c1.569,0.231,2.924,0.566,4.286,0.603c2.197,0.059,3.35,1.119,4.133,3.136  c1.065,2.747,2.469,5.362,3.702,8.044c0.301,0.657,0.67,1.021,1.462,1.114c1.801,0.209,3.587,0.565,5.635,0.904  c-1.861-3.912-3.622-7.608-5.499-11.553c1.515,0.224,2.827,0.531,4.152,0.59c2.172,0.097,3.475,0.988,4.269,3.133  c1.02,2.76,2.467,5.36,3.694,8.044c0.326,0.713,0.743,1.051,1.572,1.143c1.765,0.195,3.511,0.555,5.533,0.891  c-1.863-3.92-3.619-7.614-5.512-11.594c2.453,0.407,4.68,0.746,6.888,1.182c0.288,0.057,0.534,0.585,0.702,0.941  c1.535,3.23,3.063,6.464,4.56,9.712c0.306,0.664,0.675,1.017,1.46,1.108c1.806,0.211,3.594,0.56,5.624,0.891  c-1.866-3.92-3.625-7.618-5.501-11.562c2.047,0.316,3.872,0.599,5.697,0.881c0.037-0.069,0.073-0.138,0.11-0.206  c-1.556-0.951-3.111-1.901-4.864-2.972c1.323-0.603,2.475-1.127,3.626-1.652c2.346-1.071,4.708-2.109,7.029-3.231  c0.764-0.37,1.352-0.361,2.05,0.117c0.783,0.537,1.646,0.954,2.475,1.424c0,0.083,0,0.167,0,0.25  c-1.686,2.761-3.379,5.518-5.049,8.29c-0.162,0.269-0.198,0.625-0.25,0.947c-1.49,9.013-2.972,18.027-4.46,27.04  c-0.825,4.997-1.662,9.995-2.495,14.991C77.01,92.632,76.76,92.632,76.509,92.632z M77.876,62.281  c-18.855-3.089-37.531-6.149-56.265-9.218c-0.218,1.376-0.405,2.549-0.609,3.831c18.781,3.077,37.466,6.14,56.237,9.216  C77.452,64.828,77.648,63.652,77.876,62.281z M73.688,87.677c0.196-1.061,0.334-1.962,0.536-2.849c0.168-0.74-0.091-1.043-0.83-1.16  c-4.722-0.748-9.44-1.526-14.159-2.299c-10.464-1.711-20.928-3.424-31.392-5.136c-3.228-0.528-6.458-1.054-9.764-1.594  c-0.209,1.32-0.401,2.53-0.606,3.825C36.257,81.544,54.916,84.601,73.688,87.677z"></path><path d="M27.738,16.463c1.826-3.034,3.619-6.013,5.476-9.098c3.761,2.258,7.45,4.473,11.34,6.809  c-0.672,0.319-1.163,0.559-1.661,0.787c-3.022,1.384-6.054,2.75-9.063,4.159c-0.664,0.312-1.188,0.353-1.837-0.073  C30.642,18.159,29.23,17.361,27.738,16.463z"></path><path d="M62.407,37.289c3.837-1.75,7.428-3.398,11.032-5.015c0.304-0.138,0.786-0.222,1.04-0.078  c1.905,1.09,3.775,2.246,5.843,3.493c-3.31,1.516-6.477,2.851-9.528,4.411c-1.598,0.817-2.854,0.822-4.288-0.284  C65.301,38.889,63.911,38.202,62.407,37.289z"></path><path d="M56.502,21.359c-3.923,1.788-7.573,3.465-11.242,5.1c-0.277,0.123-0.748,0.056-1.026-0.104  c-1.834-1.057-3.638-2.163-5.656-3.376c1.504-0.692,2.833-1.305,4.163-1.916c2.265-1.039,4.525-2.09,6.805-3.095  c0.331-0.146,0.849-0.233,1.127-0.076C52.551,18.955,54.388,20.089,56.502,21.359z"></path><path d="M68.414,28.524c-2.925,1.336-5.795,2.379-8.382,3.904c-2.47,1.456-4.469,1.282-6.584-0.48  c-0.814-0.678-1.82-1.124-2.914-1.781c0.603-0.304,1.024-0.533,1.459-0.732c3.061-1.399,6.136-2.769,9.18-4.203  c0.713-0.335,1.244-0.373,1.939,0.08C64.78,26.4,66.516,27.384,68.414,28.524z"></path></g></svg>
