<?xml version="1.0" encoding="UTF-8" standalone="no"?>
<svg width="16px" height="17px" viewBox="0 0 16 17" version="1.1" xmlns="http://www.w3.org/2000/svg" xmlns:xlink="http://www.w3.org/1999/xlink">
    <!-- Generator: Sketch 42 (36781) - http://www.bohemiancoding.com/sketch -->
    <title>facebook</title>
    <desc>Created with Sketch.</desc>
    <defs>
        <polygon id="path-1" points="5.97543112e-06 15.9872431 15.9480745 15.9872431 15.9480745 2.39603487e-05 5.97543112e-06 2.39603487e-05"></polygon>
    </defs>
    <g id="master-page" stroke="none" stroke-width="1" fill="none" fill-rule="evenodd" opacity="0.5">
        <g id="Mobile-Portrait" transform="translate(-192.000000, -3417.000000)">
            <g id="footer" transform="translate(0.000000, 3172.000000)">
                <g id="social" transform="translate(112.000000, 209.500000)">
                    <g id="facebook" transform="translate(80.000000, 36.000000)">
                        <g>
                            <mask id="mask-2" fill="white">
                                <use xlink:href="#path-1"></use>
                            </mask>
                            <g id="Clip-2"></g>
                            <path d="M15.0678934,2.39603487e-05 L0.880187056,2.39603487e-05 C0.394025938,2.39603487e-05 5.97543112e-06,0.395010307 5.97543112e-06,0.882363797 L5.97543112e-06,15.1048673 C5.97543112e-06,15.5921609 0.394025938,15.9872671 0.880187056,15.9872671 L8.51840206,15.9872671 L8.51840206,9.79615258 L6.44002742,9.79615258 L6.44002742,7.38334548 L8.51840206,7.38334548 L8.51840206,5.60399009 C8.51840206,3.53908725 9.77646943,2.41468799 11.6140342,2.41468799 C12.494275,2.41468799 13.2507647,2.48033935 13.4711983,2.50969077 L13.4711983,4.66767957 L12.1967583,4.66827858 C11.1974271,4.66827858 11.0038828,5.1443108 11.0038828,5.84287477 L11.0038828,7.38334548 L13.3873033,7.38334548 L13.0769991,9.79615258 L11.0038828,9.79615258 L11.0038828,15.9872671 L15.0678934,15.9872671 C15.5539948,15.9872671 15.9480745,15.5921609 15.9480745,15.1048673 L15.9480745,0.882363797 C15.9480745,0.395010307 15.5539948,2.39603487e-05 15.0678934,2.39603487e-05" id="Fill-1" fill="#FFFFFF" mask="url(#mask-2)"></path>
                        </g>
                    </g>
                </g>
            </g>
        </g>
    </g>
</svg>