<?xml version="1.0" encoding="UTF-8" standalone="no"?>
<svg width="16px" height="17px" viewBox="0 0 16 17" version="1.1" xmlns="http://www.w3.org/2000/svg" xmlns:xlink="http://www.w3.org/1999/xlink">
    <!-- Generator: Sketch 42 (36781) - http://www.bohemiancoding.com/sketch -->
    <title>Pinterest</title>
    <desc>Created with Sketch.</desc>
    <defs></defs>
    <g id="master-page" stroke="none" stroke-width="1" fill="none" fill-rule="evenodd" opacity="0.5">
        <g id="Mobile-Portrait" transform="translate(-112.000000, -3418.000000)" fill="#FFFFFF">
            <g id="footer" transform="translate(0.000000, 3172.000000)">
                <g id="social" transform="translate(112.000000, 209.500000)">
                    <g id="Pinterest" transform="translate(0.000000, 37.000000)">
                        <g transform="translate(0.000000, 0.384615)" id="Fill-4">
                            <path d="M0,7.9965212 C0,11.3843791 2.10257123,14.2780313 5.0703317,15.4429445 C5.00039272,14.810479 4.93730091,13.839718 5.0977204,13.1493991 C5.24297828,12.5252684 6.0333377,9.17418177 6.0333377,9.17418177 C6.0333377,9.17418177 5.7946648,8.69517495 5.7946648,7.98720582 C5.7946648,6.87524321 6.43732091,6.04519353 7.23795108,6.04519353 C7.91875572,6.04519353 8.24742003,6.55704933 8.24742003,7.17137435 C8.24742003,7.85777102 7.81164637,8.88344376 7.58666783,9.83410314 C7.39885965,10.629833 7.98478204,11.2789681 8.76780519,11.2789681 C10.1856591,11.2789681 11.2758269,9.78017198 11.2758269,7.6170419 C11.2758269,5.70248548 9.90345776,4.36352169 7.943699,4.36352169 C5.67386111,4.36352169 4.34159685,6.07019798 4.34159685,7.83423742 C4.34159685,8.52112437 4.6057021,9.25851051 4.93534458,9.65907199 C5.00039272,9.73800761 5.0101744,9.80762784 4.99061104,9.88852459 C4.92996465,10.1410205 4.79546661,10.6842544 4.76905608,10.7950585 C4.73433114,10.9416532 4.65314323,10.972541 4.50201633,10.9024305 C3.50575264,10.4371516 2.88314897,8.97708787 2.88314897,7.80433013 C2.88314897,5.28182237 4.7113442,2.96523361 8.15400503,2.96523361 C10.9207521,2.96523361 13.0717426,4.94205602 13.0717426,7.58370263 C13.0717426,10.3395853 11.3379405,12.5576271 8.93213735,12.5576271 C8.12368183,12.5576271 7.3641347,12.1364737 7.10394212,11.6393264 C7.10394212,11.6393264 6.70387158,13.1660687 6.60703299,13.5401549 C6.42656107,14.2348864 5.94041177,15.1056296 5.61517105,15.6366064 C6.36151292,15.8680202 7.15480684,15.9930424 7.97744578,15.9930424 C12.3826235,15.9930424 15.9544025,12.4129935 15.9544025,7.9965212 C15.9544025,3.58004892 12.3826235,0 7.97744578,0 C3.57177895,0 0,3.58004892 0,7.9965212 Z"></path>
                        </g>
                    </g>
                </g>
            </g>
        </g>
    </g>
</svg>