<?xml version="1.0" encoding="UTF-8" standalone="no"?>
<svg width="21px" height="17px" viewBox="0 0 21 17" version="1.1" xmlns="http://www.w3.org/2000/svg" xmlns:xlink="http://www.w3.org/1999/xlink">
    <!-- Generator: Sketch 42 (36781) - http://www.bohemiancoding.com/sketch -->
    <title>twitter</title>
    <desc>Created with Sketch.</desc>
    <defs>
        <polygon id="path-1" points="0.00429266434 15.9892295 19.5595251 15.9892295 19.5595251 0.0589537393 0.00429266434 0.0589537393"></polygon>
    </defs>
    <g id="master-page" stroke="none" stroke-width="1" fill="none" fill-rule="evenodd" opacity="0.5">
        <g id="Mobile-Portrait" transform="translate(-149.000000, -3417.000000)">
            <g id="footer" transform="translate(0.000000, 3172.000000)">
                <g id="social" transform="translate(112.000000, 209.500000)">
                    <g id="twitter" transform="translate(37.000000, 36.000000)">
                        <g transform="translate(0.615385, 0.000000)">
                            <mask id="mask-2" fill="white">
                                <use xlink:href="#path-1"></use>
                            </mask>
                            <g id="Clip-2"></g>
                            <path d="M19.5595251,1.94525824 C18.8398599,2.26520061 18.0664649,2.48143604 17.2547221,2.5786882 C18.0832778,2.08080881 18.7195222,1.29246391 19.0191502,0.353148677 C18.2438235,0.81409233 17.3850044,1.14888072 16.4709531,1.32932793 C15.7389107,0.547509545 14.6960079,0.0589537393 13.5418536,0.0589537393 C11.3256225,0.0589537393 9.52885631,1.86005502 9.52885631,4.08157823 C9.52885631,4.39685881 9.56441388,4.70389161 9.63281033,4.9983017 C6.29769631,4.83054891 3.34083757,3.22904405 1.36163313,0.795301722 C1.01621674,1.38942919 0.818324913,2.08045021 0.818324913,2.81765883 C0.818324913,4.21325592 1.52682916,5.44454278 2.60357247,6.16590131 C1.94572166,6.14503083 1.32700564,5.96408157 0.785915297,5.66278637 C0.785629119,5.67956882 0.785629119,5.69642299 0.785629119,5.71334888 C0.785629119,7.66240827 2.16886866,9.2882979 4.00462657,9.65779871 C3.66786705,9.74974359 3.31336452,9.79887171 2.94734334,9.79887171 C2.68878186,9.79887171 2.43737481,9.77369803 2.19240677,9.72672151 C2.70301919,11.3249273 4.18499001,12.4879368 5.94097591,12.5204259 C4.56760949,13.599308 2.83730804,14.2424202 0.957264149,14.2424202 C0.633382624,14.2424202 0.313936852,14.2234144 0,14.1862635 C1.77587524,15.3276136 3.88521895,15.9935327 6.151388,15.9935327 C13.5324813,15.9935327 17.5687304,9.86384992 17.5687304,4.54804431 C17.5687304,4.37362157 17.564867,4.20013119 17.5571403,4.02764488 C18.3411239,3.46048409 19.0215111,2.75196342 19.5595251,1.94525824" id="Fill-1" fill="#FFFFFF" mask="url(#mask-2)"></path>
                        </g>
                    </g>
                </g>
            </g>
        </g>
    </g>
</svg>